<?xml version="1.0" encoding="UTF-8"?><svg id="_レイヤー_2" xmlns="http://www.w3.org/2000/svg" viewBox="0 0 98.51 110.3"><defs><style>.cls-1{fill:#fff;}.cls-2{fill:#bf9c50;}</style></defs><g id="rogo"><g><g><path class="cls-2" d="m93.43,23.78L54.33,1.21c-2.79-1.61-7.36-1.61-10.16,0L5.08,23.78c-2.79,1.61-5.08,5.57-5.08,8.8v45.15c0,3.23,2.29,7.18,5.08,8.8l39.1,22.57c2.79,1.61,7.36,1.61,10.16,0l39.1-22.57c2.79-1.61,5.08-5.57,5.08-8.8v-45.15c0-3.23-2.29-7.18-5.08-8.8Z"/><g><path class="cls-1" d="m71.59,57.42c.22.21.48.34.77.38.29.04.61,0,.95-.16,0,0,.01,0,.02,0,0,0,.01,0,.02,0,0,0,.01,0,.02,0s.01,0,.02,0l4-1.92c.34-.16.67-.42.97-.73.3-.32.57-.7.8-1.11.23-.42.42-.88.55-1.35.13-.47.21-.96.22-1.43l.15-5.59c.01-.47-.04-.9-.15-1.26-.11-.36-.28-.65-.49-.87-.21-.22-.47-.36-.75-.41-.29-.05-.6-.01-.94.13,0,0,0,0-.01,0,0,0,0,0-.01,0,0,0,0,0-.01,0,0,0,0,0-.01,0l-4.05,1.84c-.35.16-.68.41-.99.73-.31.32-.59.7-.82,1.13-.24.43-.43.9-.57,1.38-.14.48-.22.98-.23,1.47l-.11,5.67c0,.48.05.9.17,1.26.12.35.29.64.51.85Z"/><path class="cls-1" d="m85.97,50.61c.19.2.43.33.69.37.26.04.56,0,.87-.14,0,0,0,0,.01,0,0,0,0,0,.01,0,0,0,0,0,.01,0s0,0,.01,0l3.8-1.82c.33-.16.65-.41.95-.73.29-.32.56-.7.79-1.12.23-.42.42-.88.56-1.36.14-.48.22-.97.24-1.45l.21-5.47c.02-.45-.03-.84-.13-1.18-.1-.34-.24-.62-.43-.83-.19-.21-.41-.34-.67-.4-.26-.05-.54-.02-.85.11h-.02s-.01.01-.02.01h-.02s-.01.01-.02.01l-3.84,1.75c-.34.15-.67.4-.97.72-.3.32-.58.7-.81,1.13-.24.43-.43.9-.57,1.39-.14.49-.22.99-.24,1.48l-.17,5.54c-.01.45.03.85.14,1.19.1.34.26.61.45.81Z"/><path class="cls-1" d="m56.22,82.86c.23.19.5.31.81.33.3.02.64-.05.99-.22,0,0,.01,0,.02,0,0,0,.01,0,.02,0,0,0,.01,0,.02,0,0,0,.01,0,.02,0l4.18-2.14c.36-.18.7-.45,1.01-.78.31-.33.59-.72.83-1.15.24-.43.43-.89.56-1.37.14-.48.21-.96.22-1.43l.08-5.56c0-.47-.06-.88-.18-1.23-.12-.35-.3-.63-.52-.83-.22-.2-.49-.33-.79-.36-.3-.03-.63.02-.98.18,0,0-.01,0-.02,0,0,0-.01,0-.02,0,0,0-.01,0-.02,0,0,0-.01,0-.02,0l-4.22,2.07c-.37.18-.72.45-1.04.78-.32.33-.61.73-.85,1.17-.24.44-.44.91-.58,1.4-.14.49-.22.99-.22,1.47l-.03,5.63c0,.47.07.88.2,1.22.13.34.31.62.54.81Z"/><path class="cls-1" d="m71.25,75.2c.21.19.47.31.75.34.29.03.6-.03.93-.19,0,0,.01,0,.02,0,0,0,.01,0,.02,0s.01,0,.02,0c0,0,.01,0,.02,0l3.96-2.03c.33-.17.66-.43.95-.75.29-.32.56-.7.79-1.11.23-.41.41-.87.55-1.33.13-.46.21-.94.23-1.4l.14-5.43c.01-.46-.04-.87-.15-1.21-.11-.34-.28-.62-.48-.82-.21-.2-.46-.33-.74-.36-.28-.04-.6.01-.93.17,0,0,0,0-.01,0h-.01s0,.01-.01.01c0,0,0,0-.01,0l-3.99,1.95c-.35.17-.68.43-.98.75-.3.32-.58.71-.81,1.13-.23.42-.43.89-.56,1.36-.14.47-.22.96-.22,1.43l-.09,5.5c0,.46.05.87.17,1.21.11.34.29.61.5.81Z"/><path class="cls-1" d="m85.44,67.94c.2.19.44.31.7.34.27.03.56-.02.88-.17,0,0,.01,0,.02,0,0,0,.01,0,.02,0,0,0,.01,0,.02,0,0,0,.01,0,.02,0l3.74-1.91c.32-.16.62-.41.9-.72.28-.31.54-.67.75-1.08.22-.4.4-.84.53-1.29.13-.45.21-.91.23-1.37l.2-5.32c.02-.45-.03-.85-.13-1.18-.1-.34-.25-.61-.44-.81-.19-.2-.42-.33-.69-.37-.26-.04-.56,0-.87.14,0,0-.01,0-.02,0s-.01,0-.02,0c0,0-.01,0-.02,0,0,0-.01,0-.02,0l-3.78,1.85c-.32.16-.64.41-.93.72-.29.31-.55.68-.78,1.09-.23.41-.41.86-.54,1.32-.13.46-.21.94-.23,1.4l-.17,5.38c-.01.45.04.85.14,1.18.1.33.26.6.46.79Z"/><path class="cls-1" d="m55.57,99.72c.13.33.31.59.53.76.23.18.5.28.8.29.3,0,.63-.07.98-.25h.02s.01-.02.02-.02.01,0,.02,0c0,0,.01,0,.02,0l4.13-2.24c.35-.19.68-.47.99-.8.3-.33.58-.73.81-1.15.23-.42.42-.88.56-1.35.13-.47.21-.94.21-1.4l.08-5.4c0-.45-.06-.85-.17-1.18-.12-.33-.29-.6-.51-.78-.22-.19-.48-.3-.78-.32-.3-.02-.62.05-.97.22,0,0-.01,0-.02,0,0,0-.01,0-.02,0,0,0-.01,0-.02,0h-.02s-4.17,2.19-4.17,2.19c-.36.19-.7.46-1.01.8-.31.34-.6.73-.84,1.17-.24.43-.43.9-.57,1.38-.14.48-.21.97-.22,1.44l-.03,5.45c0,.46.06.85.19,1.18Z"/><path class="cls-1" d="m70.91,92.45c.21.18.46.28.75.3.28.01.59-.06.92-.23,0,0,.01,0,.02,0s.01,0,.02,0,.01,0,.02,0,.01,0,.02,0l3.89-2.12c.33-.18.65-.45.94-.77.29-.32.55-.7.78-1.11.22-.41.41-.86.54-1.31.13-.45.21-.92.22-1.36l.14-5.27c.01-.45-.04-.84-.15-1.16-.11-.33-.27-.59-.47-.78-.2-.19-.45-.3-.73-.32-.28-.03-.58.04-.91.19,0,0-.01,0-.02,0,0,0-.01,0-.02,0,0,0-.01,0-.02,0,0,0-.01,0-.02,0l-3.94,2.05c-.34.18-.66.44-.96.77-.3.32-.57.71-.8,1.13-.23.42-.42.88-.55,1.34-.13.47-.21.94-.22,1.4l-.1,5.34c0,.45.05.84.16,1.17.11.32.28.58.49.76Z"/><path class="cls-1" d="m84.92,84.83c.2.18.43.28.7.3.26.02.56-.05.87-.2h.02s.01-.01.02-.02c0,0,.01,0,.02,0,0,0,.01,0,.02,0l3.69-2c.31-.17.62-.43.9-.74.28-.31.53-.68.75-1.08.22-.4.39-.83.52-1.28.13-.44.21-.9.23-1.34l.2-5.17c.02-.44-.03-.82-.13-1.14-.1-.32-.25-.58-.44-.77-.19-.19-.42-.3-.68-.33-.26-.03-.55.03-.86.18,0,0-.01,0-.02,0,0,0-.01,0-.02,0,0,0-.01,0-.02,0,0,0-.01,0-.02,0l-3.72,1.95c-.32.17-.63.42-.92.73-.29.31-.55.68-.77,1.09-.22.41-.41.85-.54,1.3-.13.45-.21.92-.23,1.37l-.16,5.23c-.01.44.04.82.14,1.14.1.32.26.57.45.75Z"/><path class="cls-1" d="m41.01,91.34c-.13-.47-.32-.92-.55-1.34-.23-.42-.49-.79-.78-1.11-.29-.31-.61-.56-.93-.72l-3.82-1.86s0,0-.01,0c0,0,0,0-.01,0,0,0,0,0-.01,0,0,0,0,0-.01,0-.32-.14-.61-.19-.88-.15-.27.04-.5.17-.7.37-.2.2-.35.48-.45.82-.1.34-.15.75-.14,1.21l.19,5.39c.02.46.1.93.23,1.38.13.46.31.9.53,1.31.22.41.48.78.76,1.09.28.31.59.56.91.73l3.77,1.93s0,0,.01,0h.01s0,.01.01.01h.01c.32.16.62.22.9.18.27-.03.52-.15.72-.34.2-.2.36-.47.47-.81.11-.34.16-.74.15-1.2h0s-.15-5.46-.15-5.46c-.01-.47-.09-.95-.23-1.42Z"/></g></g><g><circle class="cls-1" cx="40.83" cy="25.18" r="7.07"/><path class="cls-1" d="m42.9,50.94c1.6,0,2.9-1.3,2.9-2.9s-1.3-2.9-2.9-2.9h-8.82l3.51-7.12c.44-.9.39-1.96-.14-2.81-.53-.85-1.46-1.37-2.46-1.37h-16.82c-1.46,0-2.68,1.08-2.87,2.52l-1.33,10.17c-.21,1.59.91,3.04,2.5,3.25,1.59.2,3.04-.91,3.25-2.5l1-7.64h9.62l-20.54,41.7c-.71,1.44-.12,3.17,1.32,3.88.41.2.85.3,1.28.3,1.07,0,2.1-.59,2.6-1.62l9.34-18.95c.08,0,.16.02.24.02h13.11l-3.83,9.93c-.58,1.49.17,3.17,1.66,3.75.34.13.69.2,1.04.2,1.16,0,2.26-.71,2.71-1.86l3.86-10.01c.74-1.92.56-3.89-.48-5.41-1.04-1.52-2.82-2.39-4.87-2.39h-10.6l4.06-8.23h11.68Z"/></g></g></g></svg>